<?xml version="1.0" standalone="no"?>
<!DOCTYPE svg PUBLIC "-//W3C//DTD SVG 20010904//EN"
 "http://www.w3.org/TR/2001/REC-SVG-20010904/DTD/svg10.dtd">
<svg version="1.0" xmlns="http://www.w3.org/2000/svg"
 width="888.000000pt" height="888.000000pt" viewBox="0 0 888.000000 888.000000"
 preserveAspectRatio="xMidYMid meet">
<metadata>
Created by potrace 1.14, written by Peter Selinger 2001-2017
</metadata>
<g transform="translate(0.000000,888.000000) scale(0.100000,-0.100000)"
fill="#000000" stroke="none">
<path d="M6150 8875 c0 -3 14 -35 30 -72 17 -36 30 -72 30 -79 0 -8 4 -14 8
-14 4 0 14 -17 21 -37 8 -21 24 -60 36 -88 32 -71 56 -125 110 -250 26 -60 57
-130 69 -155 11 -25 21 -47 21 -50 1 -3 9 -22 18 -42 9 -21 24 -55 33 -75 18
-43 31 -74 69 -158 15 -33 49 -109 75 -170 26 -60 56 -128 65 -150 10 -22 26
-58 35 -80 21 -49 41 -94 70 -160 59 -134 61 -137 104 -237 8 -18 25 -58 39
-88 13 -30 46 -104 72 -165 67 -156 85 -196 101 -229 8 -16 14 -34 14 -40 0
-6 -25 -62 -56 -126 -83 -173 -117 -244 -174 -365 -29 -60 -77 -162 -108 -225
-31 -63 -56 -117 -57 -120 0 -3 -18 -39 -38 -82 -20 -42 -37 -81 -37 -86 0 -6
-5 -12 -12 -14 -6 -2 -9 -9 -5 -14 4 -7 119 -10 329 -9 426 2 419 -1 511 214
27 64 60 140 74 169 14 29 26 58 27 65 1 7 4 17 8 22 3 6 25 55 48 110 23 55
49 116 58 135 9 19 17 40 18 45 1 6 13 36 28 67 28 60 43 98 45 111 0 4 12 30
26 57 14 27 25 52 26 55 0 6 26 69 55 133 13 29 24 59 24 67 0 8 5 15 10 15 6
0 10 5 10 12 0 13 219 535 271 646 16 35 29 67 29 73 0 5 4 17 10 27 11 20 60
131 60 136 0 2 7 20 15 40 8 20 15 39 14 42 0 4 3 10 8 13 5 3 17 29 28 56 10
28 28 70 39 95 11 25 21 47 21 50 1 3 11 26 23 52 12 26 22 53 22 60 0 8 4 18
9 23 7 9 108 239 116 265 1 3 9 23 19 45 10 22 26 61 36 86 10 26 28 68 40 95
12 27 26 58 30 69 5 11 29 66 53 122 25 56 42 104 39 107 -3 3 -152 6 -331 6
-296 0 -330 -2 -367 -19 -57 -26 -98 -69 -119 -127 -10 -27 -23 -55 -28 -61
-5 -7 -7 -13 -4 -13 4 0 -5 -30 -19 -67 -14 -38 -36 -99 -49 -138 -13 -38 -58
-169 -100 -290 -42 -121 -78 -224 -79 -230 -1 -5 -4 -14 -7 -20 -4 -5 -14 -37
-24 -70 -10 -33 -21 -64 -25 -70 -6 -8 -14 -33 -26 -80 -1 -5 -16 -46 -32 -90
-17 -44 -45 -122 -63 -172 -33 -94 -43 -103 -52 -48 -3 17 -10 42 -16 58 -6
15 -8 27 -5 27 4 0 1 7 -6 15 -7 8 -10 15 -7 15 3 0 -20 64 -50 143 -30 78
-56 149 -58 159 -2 9 -11 30 -19 47 -9 17 -17 34 -17 38 -2 12 -10 36 -19 58
-17 40 -92 236 -94 248 -2 7 -9 26 -16 42 -6 17 -22 57 -35 90 -26 71 -148
389 -163 426 -17 42 -64 91 -107 110 -36 16 -75 18 -407 19 -203 0 -368 -2
-368 -5z"/>
<path d="M114 6558 c-3 -4 8 -27 23 -51 15 -23 33 -50 38 -59 6 -9 29 -44 52
-78 24 -34 43 -64 43 -67 0 -2 14 -24 30 -48 17 -24 30 -48 30 -54 0 -6 3 -11
8 -11 4 0 16 -17 27 -37 11 -20 30 -49 41 -63 12 -14 21 -27 21 -30 -1 -3 15
-30 35 -60 112 -172 168 -262 168 -270 0 -6 4 -10 9 -10 5 0 14 -13 21 -30 7
-16 16 -30 20 -30 4 0 12 -10 17 -23 12 -25 125 -204 143 -224 5 -7 10 -14 10
-16 0 -3 86 -139 192 -303 105 -165 196 -309 202 -321 6 -13 14 -23 19 -23 4
0 7 -4 7 -9 0 -9 98 -164 117 -186 5 -5 11 -14 13 -20 1 -5 15 -28 29 -49 14
-21 31 -46 36 -55 17 -29 77 -123 142 -223 35 -54 63 -102 63 -107 0 -5 4 -11
8 -13 9 -3 126 -185 146 -225 6 -13 14 -23 19 -23 4 0 7 -7 7 -15 0 -8 3 -15
8 -15 4 0 18 -20 31 -45 13 -25 28 -45 32 -45 5 0 9 -5 9 -11 0 -6 12 -29 28
-52 15 -23 32 -51 39 -62 7 -11 39 -63 73 -115 33 -52 60 -100 60 -107 0 -6
-7 -18 -15 -27 -8 -8 -15 -19 -15 -25 0 -6 -4 -11 -10 -11 -5 0 -10 -4 -10 -9
0 -9 -128 -220 -140 -231 -7 -7 -29 -42 -37 -60 -4 -8 -28 -48 -55 -88 -26
-41 -48 -78 -48 -83 0 -5 -4 -9 -10 -9 -5 0 -10 -7 -10 -15 0 -8 -4 -15 -8
-15 -4 0 -13 -12 -20 -27 -6 -16 -30 -55 -52 -88 -22 -33 -45 -71 -52 -85 -7
-14 -15 -27 -18 -30 -3 -3 -17 -23 -30 -45 -13 -22 -27 -42 -30 -45 -3 -3 -11
-16 -18 -30 -32 -62 -44 -80 -53 -80 -5 0 -9 -5 -9 -11 0 -6 -13 -31 -30 -56
-16 -24 -30 -48 -30 -54 0 -5 -4 -9 -9 -9 -5 0 -12 -11 -15 -25 -4 -14 -11
-25 -16 -25 -6 0 -10 -4 -10 -10 0 -5 -18 -38 -40 -72 -51 -80 -55 -86 -85
-131 -14 -21 -25 -40 -25 -42 0 -5 -127 -207 -140 -222 -5 -7 -10 -17 -10 -23
0 -5 -4 -10 -9 -10 -5 0 -12 -8 -15 -18 -7 -20 -15 -33 -75 -128 -24 -38 -54
-85 -66 -104 -13 -19 -43 -66 -67 -105 -25 -38 -53 -83 -62 -100 -9 -16 -44
-73 -77 -125 -34 -52 -67 -104 -73 -115 -6 -11 -27 -45 -47 -75 -19 -30 -38
-63 -42 -72 -3 -10 -11 -18 -17 -18 -6 0 -8 -4 -5 -10 3 -5 1 -10 -4 -10 -6 0
-11 -5 -11 -11 0 -5 -18 -37 -40 -69 -22 -32 -40 -61 -40 -63 0 -3 -36 -61
-80 -129 -44 -67 -87 -137 -96 -155 -9 -18 -22 -37 -30 -44 -8 -6 -14 -17 -14
-25 0 -7 -6 -19 -13 -26 -7 -7 -46 -67 -87 -133 -40 -66 -78 -123 -84 -127 -7
-4 -5 -9 4 -13 9 -3 351 -4 760 -3 l745 3 56 26 c82 38 195 156 254 264 15 28
42 75 60 105 34 56 64 109 110 190 14 25 41 72 60 105 20 33 41 71 48 85 6 14
14 27 17 30 4 3 18 25 31 50 14 25 35 62 47 83 37 64 64 110 90 157 13 25 29
50 33 56 5 6 26 42 47 80 37 65 90 158 265 461 43 73 77 137 77 143 0 5 3 10
8 10 4 0 18 21 32 48 13 26 36 66 52 88 15 23 24 44 21 48 -4 3 -2 6 3 6 6 0
16 16 24 35 8 19 17 35 20 35 4 0 17 22 30 50 13 28 27 50 32 50 4 0 8 5 8 11
0 5 24 51 54 102 62 105 96 175 96 194 0 24 25 14 38 -15 6 -15 28 -55 48 -88
19 -32 36 -63 37 -69 1 -5 5 -14 10 -20 20 -28 57 -87 57 -92 0 -3 15 -31 34
-62 67 -110 87 -146 99 -173 6 -16 15 -28 19 -28 4 0 8 -4 8 -8 0 -8 41 -84
92 -171 16 -25 36 -62 45 -81 10 -19 21 -36 26 -38 4 -2 7 -7 7 -11 0 -5 36
-70 80 -145 44 -75 80 -140 80 -145 0 -5 3 -11 8 -13 4 -2 18 -23 31 -48 21
-40 67 -120 96 -168 6 -9 28 -50 50 -89 21 -40 43 -73 47 -73 4 0 8 -6 8 -14
0 -8 19 -45 41 -82 23 -38 52 -87 64 -109 52 -95 61 -110 72 -123 7 -7 13 -17
13 -22 0 -4 18 -38 40 -74 22 -36 40 -70 40 -76 0 -5 4 -10 8 -10 4 0 13 -12
19 -28 7 -15 28 -54 48 -87 20 -33 41 -72 48 -87 6 -16 15 -28 19 -28 4 0 8
-7 8 -15 0 -8 5 -15 10 -15 6 0 10 -5 10 -12 0 -6 7 -18 15 -27 73 -78 108
-106 164 -134 l66 -32 818 -3 818 -3 -16 28 c-8 15 -47 80 -87 143 -39 63 -76
124 -82 135 -6 11 -23 38 -38 60 -14 22 -73 119 -132 215 -58 96 -109 180
-113 185 -4 6 -42 66 -83 135 -41 69 -77 127 -81 130 -3 3 -12 17 -20 32 -18
34 -77 134 -129 217 -22 34 -40 67 -40 72 0 5 -4 9 -10 9 -5 0 -10 4 -10 9 0
5 -34 62 -75 128 -41 65 -78 125 -82 133 -7 15 -164 272 -185 301 -6 10 -10
20 -9 24 2 4 -1 11 -7 14 -5 3 -40 58 -78 121 -38 63 -72 117 -75 120 -3 3
-14 20 -23 37 -17 34 -59 100 -76 120 -5 7 -10 15 -10 18 0 3 -25 45 -55 94
-30 49 -55 94 -55 100 0 6 -4 11 -10 11 -5 0 -17 15 -25 33 -8 17 -28 52 -44
77 -32 48 -103 169 -110 185 -2 5 -12 18 -23 29 -10 11 -18 26 -18 33 0 7 -4
13 -8 13 -5 0 -14 16 -22 35 -8 19 -16 35 -20 35 -3 0 -14 17 -25 38 -11 20
-26 43 -32 50 -7 7 -13 20 -13 28 0 8 -4 14 -10 14 -5 0 -10 7 -10 15 0 8 -3
15 -8 15 -4 0 -18 21 -32 48 -13 26 -27 49 -31 52 -7 5 -49 77 -75 126 l-16
31 148 224 c82 123 151 228 153 234 2 5 22 34 43 63 21 28 35 52 31 52 -4 0
-3 4 3 8 13 9 114 161 114 172 0 5 4 10 8 12 4 2 46 62 92 133 47 72 88 132
92 133 5 2 8 8 8 12 0 11 102 164 113 168 4 2 7 8 7 14 0 12 61 102 72 106 4
2 6 7 3 12 -2 4 4 15 15 25 11 10 20 24 20 32 0 7 4 13 8 13 5 0 14 10 21 23
19 35 28 49 192 297 86 129 221 334 300 455 80 121 154 233 164 249 11 16 25
36 30 45 6 9 56 85 113 170 56 85 102 158 102 163 0 4 5 8 10 8 6 0 10 7 10
15 0 9 7 18 15 21 8 4 15 10 15 15 0 5 32 57 70 115 39 57 73 110 76 117 4 11
-141 13 -758 13 -863 -1 -822 2 -911 -81 -40 -37 -113 -140 -145 -205 -7 -14
-21 -38 -31 -55 -58 -94 -151 -258 -151 -266 0 -5 -4 -9 -10 -9 -5 0 -10 -4
-10 -9 0 -5 -36 -70 -80 -145 -44 -74 -80 -140 -80 -145 0 -6 -4 -11 -9 -11
-5 0 -11 -8 -15 -17 -3 -10 -17 -36 -31 -58 -14 -22 -28 -47 -32 -55 -4 -8
-29 -50 -55 -93 -26 -43 -48 -80 -48 -82 0 -4 -110 -194 -130 -225 -6 -8 -20
-34 -32 -57 -12 -24 -26 -43 -30 -43 -4 0 -8 -4 -8 -9 0 -8 -32 -65 -193 -341
-11 -19 -32 -55 -46 -80 -14 -25 -29 -46 -33 -48 -4 -2 -8 -8 -8 -14 0 -6 -14
-34 -32 -62 -42 -68 -75 -128 -114 -204 l-32 -64 -43 77 c-24 42 -48 84 -54
93 -55 92 -93 156 -155 262 -40 69 -83 141 -95 160 -13 19 -35 58 -50 85 -15
28 -32 53 -37 56 -5 3 -9 9 -9 13 2 7 -19 44 -49 91 -11 17 -27 47 -37 68 -10
20 -21 37 -25 37 -5 0 -8 7 -8 15 0 8 -4 15 -10 15 -5 0 -10 4 -10 9 0 9 -129
234 -147 256 -4 6 -15 24 -23 40 -8 17 -17 32 -20 35 -3 3 -12 19 -20 35 -8
17 -19 35 -23 40 -12 15 -167 278 -167 283 0 2 -8 16 -19 30 -10 15 -28 44
-39 64 -19 33 -129 221 -152 258 -52 84 -90 152 -90 160 0 6 -4 10 -10 10 -5
0 -10 6 -10 13 0 7 -20 35 -44 63 -46 52 -117 95 -163 100 -16 1 -28 3 -28 4
0 7 -1617 5 -1621 -2z"/>
</g>
</svg>
