<svg width="164" height="200" viewBox="0 0 164 200" fill="none" xmlns="http://www.w3.org/2000/svg">
<path d="M110.709 0.00532431C102.08 0.16789 93.7329 3.19001 86.3528 7.51466C77.6475 12.6122 69.7464 19.2414 61.9646 25.6001C60.0191 27.1871 58.1063 28.8174 56.1715 30.4144C55.6612 30.8495 55.1502 31.2626 54.6391 31.6863C53.9436 32.2513 53.5632 32.9575 53.7151 33.773C53.9109 34.7617 54.4759 35.5772 55.6172 35.7078C56.7045 35.8384 57.7912 35.9357 58.8778 36.0443C58.8998 36.0556 58.9211 36.0556 58.9545 36.0556C61.5735 36.3161 64.1712 36.3601 66.7796 35.903C67.0508 35.8597 67.3119 35.8384 67.5505 35.8491C68.9962 35.8924 69.7025 36.9137 69.1048 38.5334C68.757 39.4675 68.4959 40.4462 68.1048 41.359C66.3332 45.4458 64.6269 49.5646 62.7255 53.5967C59.9752 59.4444 57.2908 65.1495 53.0848 70.0951C53.0528 70.1278 53.0195 70.1711 52.9655 70.2257C52.8896 70.3123 52.8136 70.4103 52.7263 70.4976C39.869 85.387 21.6536 94.7551 9.75303 110.504C4.8081 117.057 0.134345 124.263 0.00442528 132.719C-0.0288874 135.131 0.123682 137.577 0.536759 139.946C1.37291 144.869 3.03587 149.532 5.4597 153.923C7.97014 158.466 10.9703 162.628 14.4375 166.475C15.4368 167.584 16.317 168.78 16.8067 170.214C17.3496 171.779 17.6648 173.312 16.4475 174.768C15.9798 175.322 15.644 175.985 15.2736 176.616C14.4588 178.04 14.6327 179.779 15.8606 180.865C17.0458 181.898 18.2844 182.909 19.6322 183.713C32.1198 191.158 46.8786 196.125 60.8779 199.853C63.6376 200.591 66.138 198.461 66.0614 195.516C65.9528 191.343 62.5296 188.44 59.1057 186.615C55.1502 184.517 50.7589 183.528 46.4989 182.245C45.3363 181.898 44.1403 181.692 42.9557 181.419C42.9557 181.398 42.9444 181.387 42.9444 181.365C42.9231 181.289 42.9124 181.202 42.8904 181.126C43.3362 180.844 43.7926 180.572 44.2383 180.289C51.8789 175.344 59.9645 170.812 67.2027 165.291C67.681 164.933 67.9969 164.834 68.5505 164.965C72.9738 166.03 77.3977 167.084 81.8316 168.128L81.9082 168.138L83.4079 168.388C84.3001 171.312 85.1935 174.235 86.0876 177.159C86.7632 179.368 87.4687 181.579 88.1663 183.773C89.4902 187.936 90.3476 192.3 93.0859 195.837C93.8095 196.771 94.6836 197.647 95.7949 198.048C97.314 198.597 98.9316 198.172 100.471 197.96C102.014 197.747 103.574 197.653 105.122 197.439C107.253 197.146 108.872 196.005 109.916 194.092C110.905 192.299 110.883 190.386 110.666 188.43C110.459 186.496 109.524 184.919 108.155 183.605C106.405 181.909 104.286 180.8 101.949 180.137C101.481 179.996 101.318 179.8 101.307 179.333C101.297 178.04 101.232 176.746 101.199 175.453C101.199 169.215 100.982 162.932 100.656 156.705C99.971 143.554 101.504 140.305 101.732 140.185C101.808 147.608 102.405 154.39 102.764 157.433C103.449 163.313 104.536 169.258 105.797 174.953C106.318 177.322 106.949 179.691 108.676 181.539C109.546 182.485 110.438 183.387 111.938 183.278C113.861 183.137 115.784 183.158 117.708 183.072C118.284 183.05 118.882 182.963 119.436 182.8C123.534 181.659 124.251 176.203 122.468 173.28C121.023 170.91 118.751 169.628 116.122 168.627C116.198 167.769 116.285 166.932 116.339 166.085C116.893 156.064 117.262 146.195 119.23 136.316C121.143 126.665 124.012 117.112 127.196 107.906C129.468 101.33 132.304 93.8204 130.924 86.7888C130.044 82.3222 127.435 77.9423 125.24 74.0074C122.881 69.7473 120.099 65.2695 120.306 60.2046C120.414 57.3137 121.534 54.5534 122.86 51.9664C124.066 49.5972 125.435 46.8149 127.251 44.8368C127.75 44.2938 128.337 43.8481 128.979 43.4563C130.262 42.6742 131.739 42.1305 133.087 41.5982C137.999 39.664 142.336 36.534 146.629 33.4686C150.39 30.7955 154.205 28.1105 157.345 24.7306C160.649 21.1768 163.084 16.7856 163.595 11.8953C163.812 9.71064 163.561 7.72187 162.334 5.89567C160.899 3.74367 158.258 4.33064 156.03 4.49387C153.041 4.70041 150.063 4.99356 147.096 5.38465C143.641 5.81972 139.891 6.85241 136.402 6.13419C127.733 4.36462 120.235 0.000663469 111.231 -2.7835e-06C111.057 -2.7835e-06 110.884 0.00199305 110.709 0.00532431V0.00532431ZM75.1151 154.074L72.6373 154.01L75.311 151.532C75.7021 151.162 76.0932 150.804 76.4956 150.445C77.1585 149.826 77.6688 149.771 78.0606 150.293C78.0606 150.303 78.0713 150.315 78.0713 150.325C78.1799 150.467 78.2671 150.651 78.3537 150.869C78.6256 151.608 78.9081 152.335 79.1912 153.13C79.2232 153.228 79.2665 153.325 79.2998 153.423C79.5817 154.173 79.7342 154.597 79.7342 154.597C78.0606 154.422 76.5715 154.314 75.1151 154.074Z" fill="#2FA3CF"/>
<path d="M14.009 176.897C14.1976 177.086 14.2829 177.189 14.2829 177.189L14.129 176.504C14.0603 176.641 14.0257 176.778 14.009 176.897Z" fill="#2FA3CF"/>
<path d="M108.524 84.0611C118.219 101.254 101.732 140.185 101.732 140.185C101.808 147.608 102.406 154.39 102.764 157.433C103.449 163.313 104.536 169.257 105.797 174.953C106.318 177.322 106.949 179.691 108.676 181.539C109.546 182.485 110.438 183.387 111.938 183.278C113.861 183.137 115.785 183.158 117.708 183.072C118.284 183.05 118.882 182.963 119.436 182.8C123.534 181.658 124.251 176.202 122.468 173.28C121.023 170.91 118.751 169.628 116.122 168.627C116.198 167.769 116.285 166.932 116.339 166.085C116.893 156.064 117.262 146.195 119.23 136.316C121.143 126.665 124.012 117.112 127.196 107.906C129.468 101.33 132.304 93.8203 130.924 86.7887C130.044 82.3221 127.435 77.9422 125.24 74.0073C122.881 69.7473 120.099 65.2694 120.306 60.2045C120.414 57.3137 121.534 54.5534 122.86 51.9663C124.066 49.5971 125.435 46.8148 127.251 44.8367C127.75 44.2937 128.337 43.848 128.979 43.4563C128.742 43.3643 128.465 43.319 128.149 43.319C121.353 43.3217 97.308 64.1727 108.524 84.0611" fill="#2FA3CF"/>
<path d="M44.4336 135.479C46.1512 144.033 57.4868 154.716 52.9876 165.411C49.3465 174.105 42.173 181.376 42.173 181.409L42.1077 181.441L42.9445 181.365C42.9231 181.289 42.9125 181.202 42.8905 181.126C43.3362 180.844 43.7926 180.572 44.2383 180.289C51.8789 175.344 59.9646 170.812 67.2027 165.291C67.6811 164.933 67.9969 164.834 68.5506 164.965C72.9738 166.03 77.3977 167.084 81.8317 168.128L81.9083 168.138L83.408 168.388L79.7343 154.597C78.0607 154.422 76.5716 154.314 75.1152 154.074L72.6374 154.01L75.311 151.532C75.7021 151.162 76.0932 150.804 76.4956 150.445C77.1586 149.826 77.6689 149.771 78.0607 150.293C74.8653 142.478 67.5725 126.534 60.345 123.97C58.5321 123.324 56.7779 123.028 55.1342 123.028C48.0573 123.028 43.0491 128.538 44.4336 135.479" fill="#2FA3CF"/>
<path d="M54.6391 31.6863C53.9496 32.2593 53.5631 32.9576 53.715 33.7731C53.9109 34.7618 54.4759 35.5773 55.6172 35.7078C56.7045 35.8384 57.7912 35.9357 58.8778 36.0443C58.8998 36.0556 58.9211 36.0556 58.9544 36.0556C61.5735 36.3161 64.1712 36.3601 66.7796 35.9031C67.0508 35.8598 67.3119 35.8384 67.5504 35.8491C68.9962 35.8924 69.7024 36.9138 69.1048 38.5334C68.757 39.4675 68.4959 40.4462 68.1048 41.359C66.3332 45.4458 64.6269 49.5646 62.7254 53.5967C59.9751 59.4444 57.2908 65.1496 53.0848 70.0952C53.0528 70.1278 53.0195 70.1711 52.9875 70.2038L52.9655 70.2257C52.8896 70.3123 52.8136 70.4103 52.7263 70.4976L52.737 70.5295C62.2251 60.6723 87.3095 34.4246 81.6683 28.4697C80.4091 27.1378 77.892 26.6182 74.8712 26.6182C67.4385 26.6182 56.955 29.7622 54.6391 31.6863Z" fill="#2FA3CF"/>
</svg>
