<svg xmlns="http://www.w3.org/2000/svg" width="442.033" height="443.794" viewBox="0 0 442.033 443.794"><g transform="translate(-0.127)"><path d="M316.351,344.846H240.227q-7.437,0-12.052-3.606a27.575,27.575,0,0,1-7.323-8.557L155.087,217.817a46.33,46.33,0,0,1-4.05,8.564l-61.264,106.3a48.857,48.857,0,0,1-7.434,8.335A15.928,15.928,0,0,1,71.3,344.846H.127l105.63-168.919L4.184,16.681H80.308q7.427,0,10.928,1.914a17.069,17.069,0,0,1,6.192,6.421L162.75,135.6a47.12,47.12,0,0,1,2.593-5.631c.971-1.81,2.059-3.675,3.266-5.638l57.208-98.2a23.22,23.22,0,0,1,6.643-7.212,15.657,15.657,0,0,1,8.675-2.254h72.976l-102.939,156.1Z" transform="translate(0 98.948)" fill="#2fa3cf"/><path d="M180.28,0,111.644,161.791a13.714,13.714,0,0,1-4.209,5.645c-1.65,1.186-4.292,1.789-7.933,1.789H70.767L95.536,117.2,44.257,0H78.193q4.473,0,6.879,1.983a11.987,11.987,0,0,1,3.536,4.708l21.059,55.377a113.08,113.08,0,0,1,4.826,15.484c.908-2.642,1.81-5.277,2.732-7.919s1.858-5.242,2.843-7.808L139.146,6.692a10.251,10.251,0,0,1,3.959-4.764A10.793,10.793,0,0,1,149.3,0Z" transform="translate(261.88)" fill="#2fa3cf"/></g></svg>